<svg width="26" height="18" viewBox="0 0 26 18" fill="none" xmlns="http://www.w3.org/2000/svg">
<path d="M12.8517 17.102C20.4085 17.102 25.6961 10.9245 25.6961 9.00383C25.6961 7.08311 20.3863 0.913086 12.8517 0.913086C5.38393 0.913086 0 7.08311 0 9.00383C0 10.9245 5.36909 17.102 12.8517 17.102ZM12.8517 14.3136C9.88537 14.3136 7.52712 11.896 7.5197 9.00383C7.51229 6.03746 9.88537 3.69404 12.8517 3.69404C15.7958 3.69404 18.1763 6.03746 18.1763 9.00383C18.1763 11.896 15.7958 14.3136 12.8517 14.3136ZM12.8592 10.8578C13.8751 10.8578 14.7205 10.0124 14.7205 9.00383C14.7205 7.98784 13.8751 7.14986 12.8592 7.14986C11.8283 7.14986 10.9755 7.98784 10.9755 9.00383C10.9755 10.0124 11.8283 10.8578 12.8592 10.8578Z" fill="white"/>
</svg>
