<svg width="30" height="29" viewBox="0 0 30 29" fill="none" xmlns="http://www.w3.org/2000/svg">
<path d="M13.6062 29H16.2219C16.9677 29 17.4973 28.5676 17.6595 27.8219L18.3728 24.8062C18.8701 24.6333 19.3672 24.4387 19.8104 24.2333L22.4478 25.8654C23.0747 26.2654 23.7664 26.2005 24.2745 25.6817L26.112 23.855C26.6308 23.3362 26.7064 22.6336 26.2849 21.9959L24.6636 19.3802C24.8689 18.9154 25.0635 18.4398 25.2148 17.9642L28.2521 17.2508C28.9979 17.0887 29.4086 16.5591 29.4086 15.8133V13.23C29.4086 12.495 28.9979 11.9761 28.2521 11.8032L25.2364 11.079C25.0635 10.5602 24.8581 10.0846 24.6852 9.66306L26.3065 7.00411C26.7172 6.37721 26.6632 5.69625 26.1336 5.17741L24.2745 3.33992C23.7448 2.85352 23.1179 2.76705 22.4802 3.14536L19.8104 4.7991C19.3781 4.58294 18.8917 4.39917 18.3728 4.22625L17.6595 1.17816C17.4973 0.432354 16.9677 0 16.2219 0H13.6062C12.8604 0 12.3307 0.432354 12.1686 1.17816L11.4552 4.20463C10.958 4.37755 10.4608 4.56132 10.0068 4.78829L7.34787 3.14536C6.71016 2.76705 6.07245 2.84271 5.55361 3.33992L3.6945 5.17741C3.16487 5.69625 3.11082 6.37721 3.52156 7.00411L5.14287 9.66306C4.96994 10.0846 4.76455 10.5602 4.59163 11.079L1.57598 11.8032C0.840977 11.9761 0.419434 12.495 0.419434 13.23V15.8133C0.419434 16.5591 0.840977 17.0887 1.57598 17.2508L4.61325 17.9642C4.76455 18.4398 4.95913 18.9154 5.16449 19.3802L3.54318 21.9959C3.12163 22.6336 3.1973 23.3362 3.71612 23.855L5.55361 25.6817C6.06164 26.2005 6.7534 26.2654 7.3803 25.8654L10.0176 24.2333C10.4716 24.4387 10.958 24.6333 11.4552 24.8062L12.1686 27.8219C12.3307 28.5676 12.8604 29 13.6062 29ZM14.9248 19.4558C12.1902 19.4558 9.95278 17.2076 9.95278 14.4838C9.95278 11.7708 12.201 9.53334 14.9248 9.53334C17.6486 9.53334 19.8861 11.7708 19.8861 14.4838C19.8861 17.2076 17.6486 19.4558 14.9248 19.4558Z" fill="black"/>
</svg>
