<svg width="63" height="62" viewBox="0 0 63 62" fill="none" xmlns="http://www.w3.org/2000/svg">
<path d="M10.1889 61.8075H53.1692C57.1111 61.8075 59.3508 59.6125 59.3508 55.7378V32.8926C57.7606 33.6989 55.9017 34.214 53.9083 34.214C51.0415 34.214 48.4881 33.2286 46.5172 31.616C44.5015 33.2286 41.9258 34.214 39.0814 34.214C36.2145 34.214 33.6388 33.2286 31.6679 31.616C29.7193 33.2286 27.1436 34.214 24.2768 34.214C21.4099 34.214 18.8567 33.2286 16.8633 31.616C14.8699 33.2286 12.2943 34.214 9.44981 34.214C7.47885 34.214 5.61988 33.7661 4.00728 33.027V55.7378C4.00728 59.6125 6.247 61.8075 10.1889 61.8075ZM13.5037 57.8431V41.874C13.5037 40.6197 14.3324 39.8134 15.5866 39.8134H26.8749C28.1291 39.8134 28.9354 40.6197 28.9354 41.874V57.8431H13.5037ZM37.3344 50.5641C36.0801 50.5641 35.2514 49.7578 35.2514 48.5035V40.6868C35.2514 39.4326 36.0801 38.6039 37.3344 38.6039H49.2273C50.4816 38.6039 51.2878 39.4326 51.2878 40.6868V48.5035C51.2878 49.7578 50.4816 50.5641 49.2273 50.5641H37.3344ZM7.27727 6.21754H55.5209V5.59042C55.5209 2.14124 53.4603 0.125488 49.9664 0.125488H12.8318C9.33782 0.125488 7.27727 2.14124 7.27727 5.59042V6.21754ZM0.535708 20.6637H62.2401C62.1281 20.4622 62.0385 20.2382 61.9041 20.0366L56.1256 8.88282H6.67255L0.871663 20.0366C0.75968 20.2382 0.647694 20.4622 0.535708 20.6637ZM9.18102 31.504C12.3615 31.504 15.0267 30.0034 16.5945 27.6069C18.1175 30.0034 20.8276 31.504 24.008 31.504C27.1884 31.504 29.876 29.981 31.3991 27.6069C32.9445 29.981 35.6097 31.504 38.8126 31.504C41.9929 31.504 44.6807 30.0034 46.2485 27.6069C47.7714 30.0034 50.4592 31.504 53.6395 31.504C58.7237 31.504 62.7776 27.6069 62.7776 23.777V23.3291H0.0429688V24.2249C0.0429688 28.0772 4.09686 31.504 9.18102 31.504Z" fill="white"/>
</svg>
