<svg width="58" height="43" viewBox="0 0 58 43" fill="none" xmlns="http://www.w3.org/2000/svg">
<g clip-path="url(#clip0_75_462)">
<path d="M0.435395 37.7031C2.28301 43.7109 11.4066 44.7068 21.3641 40.1846L20.4158 38.1439C11.8808 42.0457 3.93442 41.5233 2.61002 37.0501C-0.725496 26.0956 22.6559 24.659 20.0234 15.7779C18.7317 11.419 8.41448 12.1699 1.05672 17.1166C-0.26768 17.9818 0.991315 19.8429 2.28301 18.9613C7.79314 15.3207 17.113 13.8841 17.8815 16.4146C18.4374 18.292 16.9168 19.5981 11.0142 22.9285C5.35693 26.1119 -1.85369 30.1444 0.435395 37.7031Z" fill="white" fill-opacity="0.85"/>
<path d="M29.7194 36.2012L52.2668 13.7209L48.915 10.3741L26.3675 32.8381L24.3237 37.344C24.1275 37.8011 24.618 38.3072 25.0758 38.1276L29.7194 36.2012ZM54 12.023L55.9948 10.0639C57.0084 9.05174 57.0575 8.00691 56.1422 7.09269L55.5697 6.50496C54.6704 5.6234 53.5913 5.72131 52.6103 6.68456L50.6154 8.64362L54 12.023Z" fill="white" fill-opacity="0.85"/>
</g>
<defs>
<clipPath id="clip0_75_462">
<rect width="58" height="43" fill="white"/>
</clipPath>
</defs>
</svg>
