<svg width="60" height="60" viewBox="0 0 60 60" fill="none" xmlns="http://www.w3.org/2000/svg">
<g opacity="0.5">
<path d="M30.2354 59.9546C46.4232 59.9546 59.8184 46.5594 59.8184 30.3944C59.8184 14.2067 46.4005 0.811523 30.2127 0.811523C14.0478 0.811523 0.675293 14.2067 0.675293 30.3944C0.675293 46.5594 14.0705 59.9546 30.2354 59.9546ZM30.2354 55.7317C16.2046 55.7317 4.92088 44.4253 4.92088 30.3944C4.92088 16.3409 16.1819 5.05711 30.2127 5.05711C44.2663 5.05711 55.5727 16.3409 55.5727 30.3944C55.5727 44.4253 44.289 55.7317 30.2354 55.7317Z" fill="black"/>
<path d="M30.2354 44.9702C31.3479 44.9702 32.1199 44.1755 32.1199 43.0631V26.9435L31.9382 21.2222L35.0941 24.832L39.0217 28.7825C39.3623 29.1684 39.8164 29.3501 40.3612 29.3501C41.4057 29.3501 42.2003 28.5782 42.2003 27.5565C42.2003 27.0343 42.0186 26.5803 41.6781 26.2397L31.7112 16.2955C31.2344 15.8187 30.8031 15.5917 30.2354 15.5917C29.7133 15.5917 29.2819 15.796 28.8051 16.2955L18.8155 26.2397C18.475 26.5803 18.316 27.0343 18.316 27.5565C18.316 28.5782 19.088 29.3501 20.1323 29.3501C20.6772 29.3501 21.1313 29.1457 21.4718 28.7825L25.4223 24.832L28.5327 21.2449L28.351 26.9435V43.0631C28.351 44.1755 29.1457 44.9702 30.2354 44.9702Z" fill="black"/>
</g>
</svg>
