<svg width="25" height="26" viewBox="0 0 25 26" fill="none" xmlns="http://www.w3.org/2000/svg">
<path d="M9.7602 15.0139L8.30332 21.7746C8.12238 22.6602 6.74168 22.4507 6.96068 21.4414L8.43661 14.5854C8.55089 14.0617 8.9794 13.6618 9.49358 13.6332H9.6364L11.6932 7.40576C11.9313 6.69159 12.8835 6.70111 13.1215 7.40576L15.1688 13.6332H15.3211C15.8353 13.6618 16.2734 14.0617 16.3781 14.595L17.8635 21.4414C18.073 22.4507 16.7018 22.6602 16.5209 21.7746L15.0545 15.0139H9.7602ZM12.3978 25.3931C19.1871 25.3931 24.8052 19.775 24.8052 12.9952C24.8052 6.20597 19.1776 0.587891 12.3883 0.587891C5.60856 0.587891 0 6.20597 0 12.9952C0 19.775 5.61808 25.3931 12.3978 25.3931Z" fill="white"/>
</svg>
