<svg width="26" height="26" viewBox="0 0 26 26" fill="none" xmlns="http://www.w3.org/2000/svg">
<path d="M11.8434 25.4121H14.0824C14.7209 25.4121 15.1742 25.042 15.313 24.4036L15.9237 21.8222C16.3493 21.6741 16.7749 21.5076 17.1542 21.3318L19.4118 22.7289C19.9485 23.0712 20.5406 23.0157 20.9755 22.5716L22.5484 21.008C22.9925 20.5639 23.0573 19.9625 22.6964 19.4165L21.3086 17.1775C21.4844 16.7796 21.6509 16.3725 21.7804 15.9654L24.3804 15.3547C25.0188 15.216 25.3704 14.7626 25.3704 14.1242V11.9129C25.3704 11.2837 25.0188 10.8396 24.3804 10.6915L21.799 10.0716C21.6509 9.62748 21.4751 9.2204 21.3271 8.85955L22.7149 6.58346C23.0665 6.04683 23.0203 5.46393 22.5669 5.0198L20.9755 3.44688C20.5221 3.03053 19.9855 2.95651 19.4396 3.28034L17.1542 4.69596C16.7841 4.51092 16.3678 4.35361 15.9237 4.20559L15.313 1.5964C15.1742 0.957989 14.7209 0.587891 14.0824 0.587891H11.8434C11.2049 0.587891 10.7516 0.957989 10.6128 1.5964L10.0021 4.18708C9.57654 4.33511 9.15091 4.49241 8.7623 4.6867L6.48622 3.28034C5.94033 2.95651 5.39444 3.02128 4.95031 3.44688L3.3589 5.0198C2.90553 5.46393 2.85927 6.04683 3.21086 6.58346L4.59871 8.85955C4.45069 9.2204 4.27488 9.62748 4.12685 10.0716L1.54543 10.6915C0.916265 10.8396 0.55542 11.2837 0.55542 11.9129V14.1242C0.55542 14.7626 0.916265 15.216 1.54543 15.3547L4.14536 15.9654C4.27488 16.3725 4.44144 16.7796 4.61722 17.1775L3.22937 19.4165C2.86852 19.9625 2.93329 20.5639 3.37741 21.008L4.95031 22.5716C5.38519 23.0157 5.97734 23.0712 6.51398 22.7289L8.77155 21.3318C9.16016 21.5076 9.57654 21.6741 10.0021 21.8222L10.6128 24.4036C10.7516 25.042 11.2049 25.4121 11.8434 25.4121ZM12.9722 17.2422C10.6313 17.2422 8.71603 15.3177 8.71603 12.9861C8.71603 10.6638 10.6406 8.7485 12.9722 8.7485C15.3038 8.7485 17.219 10.6638 17.219 12.9861C17.219 15.3177 15.3038 17.2422 12.9722 17.2422Z" fill="white"/>
</svg>
