<svg width="21" height="26" viewBox="0 0 21 26" fill="none" xmlns="http://www.w3.org/2000/svg">
<g clip-path="url(#clip0_28_69)">
<path d="M15.3144 5.95774C13.3926 5.95774 11.8393 7.08565 10.8336 7.08565C9.76813 7.08565 8.37412 6.02519 6.70128 6.02519C3.53485 6.02519 0.318634 8.56061 0.318634 13.3422C0.318634 16.3307 1.50356 19.4735 2.97724 21.4979C4.24183 23.2139 5.33712 24.6311 6.93029 24.6311C8.50355 24.6311 9.19061 23.6188 11.1422 23.6188C13.1337 23.6188 13.5718 24.6021 15.3144 24.6021C17.037 24.6021 18.1821 23.079 19.2674 21.5654C20.4822 19.8398 20.99 18.1527 21 18.0756C20.9004 18.0371 17.6046 16.7356 17.6046 13.0916C17.6046 9.92955 20.2034 8.5124 20.3428 8.40638C18.6401 6.0252 16.0313 5.95774 15.3144 5.95774ZM14.4083 3.94289C15.1949 3.01742 15.7525 1.76418 15.7525 0.491657C15.7525 0.318131 15.7425 0.144605 15.7027 0C14.4282 0.0482016 12.8848 0.829069 11.9687 1.87987C11.2418 2.67037 10.5747 3.94289 10.5747 5.21542C10.5747 5.39857 10.6046 5.5914 10.6245 5.65889C10.7041 5.66853 10.8336 5.68781 10.963 5.68781C12.1181 5.68781 13.5619 4.94549 14.4083 3.94289Z" fill="white"/>
</g>
<defs>
<clipPath id="clip0_28_69">
<rect width="21" height="26" fill="white"/>
</clipPath>
</defs>
</svg>
