<svg width="34" height="34" viewBox="0 0 34 34" fill="none" xmlns="http://www.w3.org/2000/svg">
<g clip-path="url(#clip0_28_54)">
<path d="M33.8959 16.9935C33.8959 26.2792 26.2189 33.9739 16.9414 33.9739C7.67702 33.9739 0 26.2792 0 16.9935C0 7.69468 7.66401 0 16.9284 0C26.2059 0 33.8959 7.69468 33.8959 16.9935ZM9.71988 16.8761C9.71988 21.9363 12.5825 25.1837 17.0586 25.1837C21.1833 25.1837 23.6556 22.6797 23.6556 19.028V17.7629C23.6556 16.9543 23.2002 16.4718 22.4194 16.4718H17.6962C17.1497 16.4718 16.7983 16.837 16.7983 17.3586C16.7983 17.8281 17.1497 18.2455 17.6962 18.2455H21.2874V19.3149C21.2874 21.6494 19.8171 23.1753 17.0846 23.1753C14.1309 23.1753 12.1401 20.6452 12.1401 16.8761C12.1401 13.1201 14.1179 10.5769 17.0455 10.5769C19.1795 10.5769 20.7539 11.6594 21.3915 13.5113C21.6257 14.059 21.912 14.2938 22.3934 14.2938C23.044 14.2938 23.4344 13.8895 23.4344 13.2374C23.4344 12.9636 23.3953 12.7549 23.3043 12.494C22.5756 10.3813 20.3636 8.56844 17.0065 8.56844C12.5825 8.56844 9.71988 11.8289 9.71988 16.8761Z" fill="white"/>
</g>
<defs>
<clipPath id="clip0_28_54">
<rect width="34" height="34" fill="white"/>
</clipPath>
</defs>
</svg>
